<svg
xmlns:dc="http://purl.org/dc/elements/1.1/"
xmlns:cc="http://creativecommons.org/ns#"
xmlns:rdf="http://www.w3.org/1999/02/22-rdf-syntax-ns#"
xmlns:svg="http://www.w3.org/2000/svg"
xmlns="http://www.w3.org/2000/svg"
viewBox="0 0 702.66669 170.66667"
height="50"
width="100%"
xml:space="preserve"
id="svg2"
version="1.1"><metadata
id="metadata8"><rdf:RDF><cc:Work
   rdf:about=""><dc:format>image/svg+xml</dc:format><dc:type
     rdf:resource="http://purl.org/dc/dcmitype/StillImage" /></cc:Work></rdf:RDF></metadata><defs
id="defs6"><clipPath
 id="clipPath18"
 clipPathUnits="userSpaceOnUse"><path
   id="path16"
   d="M 0,128 H 527 V 0 H 0 Z" /></clipPath></defs><g
transform="matrix(1.3333333,0,0,-1.3333333,0,170.66667)"
id="g10"><g
 id="g12"><g
   clip-path="url(#clipPath18)"
   id="g14"><g
     transform="translate(37.9115,75.4983)"
     id="g20"><path
       id="path22"
       style="fill:#00ff87;fill-opacity:1;fill-rule:nonzero;stroke:none"
       d="m 0,0 h -6.618 v -29.913 h -23.03 l -0.133,22.103 v 32.561 c 0,7.412 1.986,12.948 5.956,16.611 3.971,3.66 11.073,5.492 21.31,5.492 H 31.369 58.238 V 29.384 H 20.648 7.677 c -5.648,0 -9.421,-1.059 -11.317,-3.177 -1.899,-2.118 -2.891,-5.03 -2.978,-8.735 H 0 58.238 V 0 Z" /></g><g
     transform="translate(194.3578,67.6888)"
     id="g24"><path
       id="path26"
       style="fill:#00ff87;fill-opacity:1;fill-rule:nonzero;stroke:none"
       d="m 0,0 c 0,-7.146 -1.899,-12.619 -5.691,-16.412 -3.795,-3.795 -10.854,-5.692 -21.178,-5.692 h -33.884 c -10.237,0 -17.339,1.831 -21.31,5.493 -3.97,3.661 -5.956,9.199 -5.956,16.611 v 54.664 h 23.295 V 7.545 c 0,-3.884 0.948,-6.883 2.846,-9 1.897,-2.118 5.669,-3.178 11.317,-3.178 h 12.971 c 6.089,0 10.014,0.971 11.78,2.912 1.764,1.941 2.647,5.03 2.647,9.266 V 54.664 H 0 Z" /></g><g
     transform="translate(254.977,89.5286)"
     id="g28"><path
       id="path30"
       style="fill:#00ff87;fill-opacity:1;fill-rule:nonzero;stroke:none"
       d="m 0,0 c 6.088,0 10.014,0.97 11.779,2.912 1.764,1.94 2.647,3.527 2.647,4.764 0,1.235 -0.883,2.824 -2.647,4.765 C 10.014,14.381 6.088,15.354 0,15.354 H -12.972 -27.267 V 0 Z M 38.648,-43.943 H 12.705 l -25.677,26.471 h -14.295 v -26.471 h -23.03 v 76.767 h 27.133 33.885 c 10.324,0 17.383,-1.898 21.177,-5.691 3.792,-3.795 5.692,-9.265 5.692,-16.412 V 7.412 4.633 c 0,-7.149 -1.9,-12.62 -5.692,-16.413 -3.794,-3.795 -8.957,-5.692 -15.486,-5.692 h -3.441 z" /></g><g
     transform="translate(334.6547,104.8821)"
     id="g32"><path
       id="path34"
       style="fill:#00ff87;fill-opacity:1;fill-rule:nonzero;stroke:none"
       d="M 0,0 H -31.766 V 17.471 H -5.029 28.854 56.12 V 0 H 23.031 V -59.297 H 0 Z" /></g><g
     transform="translate(424.1273,45.5852)"
     id="g36"><path
       id="path38"
       style="fill:#00ff87;fill-opacity:1;fill-rule:nonzero;stroke:none"
       d="M 0,0 H -23.03 V 76.768 H 0.133 v -47.12 z" /></g><g
     transform="translate(464.1,75.4983)"
     id="g40"><path
       id="path42"
       style="fill:#00ff87;fill-opacity:1;fill-rule:nonzero;stroke:none"
       d="m 0,0 h -6.618 v -29.913 h -23.03 l -0.133,22.103 v 32.561 c 0,7.412 1.985,12.948 5.957,16.611 3.97,3.66 11.072,5.492 21.309,5.492 H 31.369 58.237 V 29.384 H 20.647 7.677 c -5.649,0 -9.42,-1.059 -11.317,-3.177 -1.898,-2.118 -2.891,-5.03 -2.978,-8.735 H 0 58.237 L 58.237,0 Z" /></g><g
     transform="translate(143.9696,23.5325)"
     id="g44"><path
       id="path46"
       style="fill:#00ff87;fill-opacity:1;fill-rule:nonzero;stroke:none"
       d="M 0,0 H 3.509 L 2.958,1.705 C 2.489,3.241 1.93,4.344 1.278,5.014 0.626,5.682 0.066,6.016 -0.401,6.016 -0.87,6.016 -1.437,5.682 -2.105,5.014 -2.774,4.344 -3.342,3.241 -3.81,1.705 L -4.311,0 Z M 4.912,-6.616 H 2.657 -3.609 -5.865 l -2.406,-9.525 h -8.823 c 3.442,13.301 5.297,20.218 5.565,20.752 0.601,1.672 1.754,3.477 3.458,5.414 1.705,1.938 3.425,2.909 5.163,2.909 h 4.963 c 1.905,0 3.667,-0.971 5.288,-2.909 1.621,-1.937 2.682,-3.742 3.183,-5.414 0.267,-0.534 2.172,-7.451 5.715,-20.752 H 7.418 Z" /></g><g
     transform="translate(222.4682,15.763)"
     id="g48"><path
       id="path50"
       style="fill:#00ff87;fill-opacity:1;fill-rule:nonzero;stroke:none"
       d="m 0,0 c 0,-2.707 -0.719,-4.779 -2.156,-6.216 -1.438,-1.436 -4.11,-2.155 -8.02,-2.155 h -12.833 c -3.877,0 -6.566,0.693 -8.07,2.08 -1.504,1.387 -2.256,3.484 -2.256,6.291 v 20.703 h 8.823 V 2.857 c 0,-1.47 0.358,-2.606 1.077,-3.408 0.719,-0.803 2.147,-1.203 4.286,-1.203 h 4.913 c 2.305,0 3.793,0.367 4.461,1.103 0.668,0.734 1.004,1.905 1.004,3.508 V 20.703 H 0 Z" /></g><g
     transform="translate(260.1625,29.8489)"
     id="g52"><path
       id="path54"
       style="fill:#00ff87;fill-opacity:1;fill-rule:nonzero;stroke:none"
       d="m 0,0 v -15.84 h 5.464 4.913 c 2.138,0 3.566,0.401 4.286,1.203 0.718,0.802 1.077,1.938 1.077,3.408 v 6.618 c 0,1.469 -0.359,2.606 -1.077,3.408 C 13.943,-0.4 12.515,0 10.377,0 H 5.464 Z M -8.722,-22.457 V 6.617 H 1.404 14.236 c 3.877,0 6.568,-0.694 8.071,-2.08 1.504,-1.388 2.255,-3.484 2.255,-6.291 v -12.332 c 0,-2.807 -0.751,-4.904 -2.255,-6.291 -1.503,-1.387 -4.194,-2.08 -8.071,-2.08 H 1.404 Z" /></g><g
     transform="translate(322.4203,7.3919)"
     id="g56"><path
       id="path58"
       style="fill:#00ff87;fill-opacity:1;fill-rule:nonzero;stroke:none"
       d="M 0,0 H -8.722 V 29.074 H 0.051 V 11.229 Z" /></g><g
     transform="translate(375.9066,25.2376)"
     id="g60"><path
       id="path62"
       style="fill:#00ff87;fill-opacity:1;fill-rule:nonzero;stroke:none"
       d="m 0,0 c 0,1.604 -0.335,2.773 -1.003,3.508 -0.669,0.735 -2.155,1.103 -4.461,1.103 h -4.913 c -2.139,0 -3.567,-0.4 -4.286,-1.203 C -15.382,2.606 -15.74,1.47 -15.74,0 v -6.617 c 0,-1.471 0.358,-2.607 1.077,-3.408 0.719,-0.803 2.147,-1.204 4.286,-1.204 h 4.913 c 2.306,0 3.776,0.368 4.411,1.103 0.634,0.734 0.986,1.888 1.053,3.458 z m 6.616,-15.69 c -1.437,-1.437 -4.11,-2.156 -8.02,-2.156 h -12.832 c -3.877,0 -6.568,0.694 -8.071,2.08 -1.504,1.387 -2.255,3.485 -2.255,6.291 V 2.857 c 0,2.807 0.751,4.904 2.255,6.291 1.503,1.386 4.194,2.081 8.071,2.081 h 12.832 c 3.91,0 6.583,-0.719 8.02,-2.157 C 8.053,7.635 8.771,5.564 8.771,2.857 V -9.475 c 0,-2.707 -0.718,-4.779 -2.155,-6.215" /></g></g></g></g></svg>
